<svg width="22" height="29" viewBox="0 0 22 29" fill="none" xmlns="http://www.w3.org/2000/svg">
<path d="M13.5788 15.5914L10.3361 15.5576C9.18768 15.5576 7.81403 15.5914 6.21519 15.659C5.69726 19.5322 5.43829 22.4259 5.43829 24.34C5.43829 26.2541 5.59593 27.5827 5.91119 28.3258C3.99709 27.8304 2.691 27.1773 1.99292 26.3667C1.29483 25.5335 0.94579 24.385 0.94579 22.9213C0.94579 22.0656 1.18224 19.8925 1.65513 16.4021C1.67765 16.312 1.68891 16.2557 1.68891 16.2332C1.01335 16.4133 0.472895 16.5935 0.0675566 16.7736C0.0225189 16.2782 0 15.9067 0 15.659C0 14.0827 0.720602 13.1143 2.16181 12.754C2.6347 8.74569 2.87115 5.48046 2.87115 2.95835C2.87115 2.28279 2.82611 1.35952 2.73604 0.188538C4.98792 0.278613 6.4066 0.683952 6.99209 1.40455C7.28484 1.80989 7.46499 2.20397 7.53255 2.58679C7.62262 2.94709 7.66766 3.54384 7.66766 4.37704C7.66766 5.18772 7.51003 6.65144 7.19476 8.76821C6.8795 10.8625 6.69935 12.1123 6.65431 12.5176C10.3924 12.5176 13.6126 12.4951 16.3149 12.45C16.7878 8.5768 17.0242 5.41291 17.0242 2.95835C17.0242 2.28279 16.9792 1.35952 16.8891 0.188538C19.141 0.278613 20.5484 0.683952 21.1114 1.40455C21.4267 1.80989 21.6181 2.20397 21.6856 2.58679C21.7757 2.94709 21.8207 3.54384 21.8207 4.37704C21.8207 5.18772 21.4379 8.18272 20.6723 13.362C19.9292 18.5189 19.5576 22.1219 19.5576 24.1711C19.5576 26.1978 19.7152 27.5827 20.0305 28.3258C18.1164 27.8304 16.8103 27.1773 16.1122 26.3667C15.4367 25.556 15.0989 24.5201 15.0989 23.2591C15.0989 21.998 15.3241 19.7124 15.7744 16.4021L15.9771 14.9496C15.4817 15.3775 14.6823 15.5914 13.5788 15.5914Z" fill="#3CAA9F"/>
</svg>
